<svg viewBox="0 0 17 25" fill="none" xmlns="http://www.w3.org/2000/svg">
<path d="M1.37192 13.1865L13.4916 23.8666C13.7719 24.1138 14.1461 24.25 14.5451 24.25C14.9441 24.25 15.3183 24.1138 15.5986 23.8666L16.4911 23.0803C17.0719 22.5679 17.0719 21.7351 16.4911 21.2235L6.31394 12.255L16.5024 3.27651C16.7827 3.02929 16.9375 2.69974 16.9375 2.34832C16.9375 1.99652 16.7827 1.66696 16.5024 1.41955L15.6099 0.633411C15.3294 0.386194 14.9554 0.25 14.5564 0.25C14.1574 0.25 13.7832 0.386194 13.5029 0.633411L1.37192 11.3233C1.09095 11.5713 0.936619 11.9024 0.937504 12.2544C0.936619 12.6078 1.09095 12.9387 1.37192 13.1865Z" fill="#66727F"/>
</svg>
