<svg width="65" height="70" viewBox="0 0 65 70" fill="none" xmlns="http://www.w3.org/2000/svg">
<g clip-path="url(#clip0_1_23)">
<path d="M57.7921 12.6978C60.5815 14.8265 63.224 19.451 63.591 22.9744C63.591 22.9744 64.1783 28.3329 64.1783 34.5723C64.1783 40.885 63.591 46.1701 63.591 46.1701C63.224 49.6935 60.6549 54.318 57.7921 56.4467C57.7921 56.4467 53.5347 59.6031 48.2495 62.7595C42.891 65.9159 38.1198 68.0446 38.1198 68.0446C36.5783 68.7786 34.4496 69.1457 32.3208 69.1457C30.2655 69.1457 28.1368 68.7786 26.5219 68.0446C26.5219 68.0446 21.6772 65.9159 16.3921 62.7595C11.107 59.6031 6.84955 56.4467 6.84955 56.4467C4.06019 54.318 1.41763 49.6935 1.05061 46.1701C1.05061 46.1701 0.463379 40.8116 0.463379 34.5723C0.463379 28.2595 1.05061 22.9744 1.05061 22.9744C1.41763 19.451 3.98678 14.8265 6.84955 12.6978C6.84955 12.6978 11.107 9.61482 16.3921 6.45844C21.7506 3.30205 26.5219 1.17333 26.5219 1.17333C28.0634 0.439287 30.1921 0.0722656 32.3208 0.0722656C34.3761 0.0722656 36.5049 0.439287 38.1198 1.17333C38.1198 1.17333 42.9644 3.30205 48.2495 6.45844C53.5347 9.54141 57.7921 12.6978 57.7921 12.6978Z" fill="#4BB449"/>
<path fill-rule="evenodd" clip-rule="evenodd" d="M50.3034 47.5133C50.5597 47.0314 50.7794 46.5203 50.9405 45.9946C51.1968 45.1622 51.3359 44.2787 51.3359 43.366C51.3359 41.0368 50.3913 38.8829 48.8462 37.3057C48.6192 37.0721 48.3776 36.8603 48.1213 36.6559C47.8284 36.4222 47.5282 36.2032 47.206 35.9987C46.6714 35.6702 46.0929 35.3927 45.4778 35.181V35.1079V18.4603C45.4778 18.0587 45.3094 17.6937 45.0458 17.4308C44.9213 17.3067 44.7675 17.2044 44.5991 17.1314C44.5918 17.1314 44.5845 17.1241 44.5771 17.1168C44.4014 17.0438 44.211 17 44.006 17H18.4645C17.659 17 17 17.6571 17 18.4603V49.273C17 50.0762 17.659 50.7333 18.4645 50.7333H37.5767C38.968 51.6825 40.6522 52.1936 42.4828 52.1936C45.8586 52.1936 48.7803 50.3317 50.2742 47.579C50.2888 47.5571 50.2961 47.5352 50.3034 47.5133ZM42.5561 34.5968C42.5561 34.5968 42.5561 34.5968 42.4828 34.5968C37.5767 34.5968 33.6224 38.5397 33.6224 43.4317C33.6224 44.9067 34.0032 46.3086 34.633 47.4841C34.6915 47.5936 34.7355 47.7105 34.7941 47.8127H19.9291V19.9206H42.5561V34.5968ZM36.6247 43.4317C36.6247 40.219 39.2609 37.5905 42.4828 37.5905C44.2623 37.5905 45.8513 38.3937 46.9277 39.6495C47.0083 39.7444 47.0888 39.8467 47.1694 39.9489C47.3378 40.1752 47.4989 40.4089 47.6307 40.6571C48.0847 41.4822 48.341 42.4314 48.341 43.439C48.4142 46.6517 45.778 49.2803 42.4828 49.2803C39.7076 49.2803 37.3716 47.3308 36.7785 44.7387C36.6833 44.3079 36.6247 43.8771 36.6247 43.4317ZM38.4481 44.2933C38.0087 43.826 37.9794 43.074 38.3748 42.5263C38.4188 42.4606 38.47 42.3949 38.5286 42.3365C38.6311 42.2197 38.7483 42.1394 38.8728 42.0663C38.9094 42.0444 38.946 42.0225 38.9826 42.0079C38.9899 42.0079 38.9973 42.0006 39.0119 42.0006C39.173 41.9349 39.3488 41.8984 39.5318 41.8984C39.9053 41.8984 40.2934 42.0444 40.5863 42.3365L41.8311 43.5778L44.7968 40.8762L45.1996 40.5111C45.2508 40.4673 45.3021 40.4381 45.3533 40.4016C45.3826 40.387 45.4046 40.3651 45.4339 40.3432C45.4412 40.3359 45.4485 40.3359 45.4558 40.3359C45.8439 40.1241 46.3053 40.0876 46.708 40.2263C46.9131 40.2994 47.0961 40.4162 47.2499 40.5841C47.2572 40.5914 47.2572 40.5987 47.2645 40.5987C47.6893 41.0368 47.7552 41.6721 47.5208 42.1759C47.4403 42.3438 47.3231 42.5044 47.1767 42.6286L42.7831 46.6444C42.4902 46.8635 42.124 47.0095 41.7579 47.0095C41.5455 47.0095 41.3332 46.9584 41.1355 46.8562C40.989 46.7832 40.8499 46.6956 40.7327 46.5714L38.5359 44.381C38.4993 44.3517 38.4774 44.3225 38.4481 44.2933ZM22.7556 25.6743C22.6824 25.499 22.6384 25.3092 22.6384 25.1048C22.6384 24.3016 23.2975 23.6444 24.103 23.6444H38.0893C38.5799 23.6444 39.0192 23.8927 39.2828 24.2724C39.3048 24.3016 39.3195 24.3308 39.3414 24.3673C39.422 24.4987 39.4806 24.6375 39.5172 24.7908C39.5391 24.893 39.5538 25.0025 39.5538 25.1121C39.5538 25.9152 38.8947 26.5724 38.0893 26.5724H24.103C23.4952 26.5651 22.9753 26.1927 22.7556 25.6743ZM22.7556 32.2457C22.6824 32.0705 22.6384 31.8806 22.6384 31.6762C22.6384 30.873 23.2975 30.2159 24.103 30.2159H38.0893C38.5799 30.2159 39.0192 30.4641 39.2828 30.8438C39.3048 30.873 39.3195 30.9022 39.3414 30.9387C39.422 31.0702 39.4806 31.2089 39.5172 31.3622C39.5391 31.4644 39.5538 31.574 39.5538 31.6835C39.5538 32.4867 38.8947 33.1438 38.0893 33.1438H24.103C23.4952 33.1365 22.9753 32.7641 22.7556 32.2457Z" fill="white"/>
</g>
<defs>
<clipPath id="clip0_1_23">
<rect width="63.7149" height="69" fill="white" transform="translate(0.463379 0.0722656)"/>
</clipPath>
</defs>
</svg>
