<svg width="65" height="70" viewBox="0 0 65 70" fill="none" xmlns="http://www.w3.org/2000/svg">
<g clip-path="url(#clip0_1_65)">
<path d="M57.7921 12.6978C60.5815 14.8265 63.224 19.451 63.591 22.9744C63.591 22.9744 64.1783 28.3329 64.1783 34.5723C64.1783 40.885 63.591 46.1701 63.591 46.1701C63.224 49.6935 60.6549 54.318 57.7921 56.4467C57.7921 56.4467 53.5347 59.6031 48.2495 62.7595C42.891 65.9159 38.1198 68.0446 38.1198 68.0446C36.5783 68.7786 34.4496 69.1457 32.3208 69.1457C30.2655 69.1457 28.1368 68.7786 26.5219 68.0446C26.5219 68.0446 21.6772 65.9159 16.3921 62.7595C11.107 59.6031 6.84955 56.4467 6.84955 56.4467C4.06019 54.318 1.41763 49.6935 1.05061 46.1701C1.05061 46.1701 0.463379 40.8116 0.463379 34.5723C0.463379 28.2595 1.05061 22.9744 1.05061 22.9744C1.41763 19.451 3.98678 14.8265 6.84955 12.6978C6.84955 12.6978 11.107 9.61482 16.3921 6.45844C21.7506 3.30205 26.5219 1.17333 26.5219 1.17333C28.0634 0.439287 30.1921 0.0722656 32.3208 0.0722656C34.3761 0.0722656 36.5049 0.439287 38.1198 1.17333C38.1198 1.17333 42.9644 3.30205 48.2495 6.45844C53.5347 9.54141 57.7921 12.6978 57.7921 12.6978Z" fill="#EE2F53"/>
<path d="M45.1596 17.166V14.1564C45.1596 13.1287 44.7191 12.1745 43.9851 11.5872C43.2511 11 42.2234 10.8532 41.1957 11.1468L19.8351 17.166C19.3947 17.3128 19.1011 17.6064 18.8809 17.9734C18.367 18.4872 18 19.2213 18 20.1021V53.134C18 54.7489 19.3213 56.0702 20.9362 56.0702H44.4255C46.0404 56.0702 47.3617 54.7489 47.3617 53.134V20.1021C47.3617 18.634 46.4074 17.4596 45.1596 17.166ZM41.9298 13.9362C42.0766 13.8628 42.15 13.9362 42.15 13.9362C42.15 13.9362 42.2234 14.0096 42.2234 14.1564V17.0926H30.8457L41.9298 13.9362ZM44.4255 53.0606H20.9362V20.0287H44.4255V53.0606Z" fill="white"/>
<path d="M26.9362 23H24V34.7447C24 37.2404 25.3213 39.883 29.1383 39.883H30.0926L30.6798 40.4702L32.7351 42.5255L34.7904 40.4702L35.3777 39.883H36.3319C39.3415 39.883 41.4702 37.7543 41.4702 34.7447V23H26.9362ZM38.6809 34.7447C38.6809 36.2128 37.7266 36.9468 36.4787 36.9468H34.2766L32.8085 38.4149L31.3404 36.9468H29.1383C28.4043 36.9468 26.9362 36.9468 26.9362 34.7447V25.9362H38.6809V34.7447ZM40.1489 45.0213H25.4681C24.6606 45.0213 24 45.6819 24 46.4894C24 47.2968 24.6606 47.9574 25.4681 47.9574H40.1489C40.9564 47.9574 41.617 47.2968 41.617 46.4894C41.617 45.6819 40.9564 45.0213 40.1489 45.0213Z" fill="#FEFEFE"/>
</g>
<defs>
<clipPath id="clip0_1_65">
<rect width="63.7149" height="69" fill="white" transform="translate(0.463379 0.0722656)"/>
</clipPath>
</defs>
</svg>
