<svg width="65" height="70" viewBox="0 0 65 70" fill="none" xmlns="http://www.w3.org/2000/svg">
<g clip-path="url(#clip0_1_56)">
<path d="M57.7921 12.6978C60.5815 14.8265 63.224 19.451 63.591 22.9744C63.591 22.9744 64.1783 28.3329 64.1783 34.5723C64.1783 40.885 63.591 46.1701 63.591 46.1701C63.224 49.6935 60.6549 54.318 57.7921 56.4467C57.7921 56.4467 53.5347 59.6031 48.2495 62.7595C42.891 65.9159 38.1198 68.0446 38.1198 68.0446C36.5783 68.7786 34.4496 69.1457 32.3208 69.1457C30.2655 69.1457 28.1368 68.7786 26.5219 68.0446C26.5219 68.0446 21.6772 65.9159 16.3921 62.7595C11.107 59.6031 6.84955 56.4467 6.84955 56.4467C4.06019 54.318 1.41763 49.6935 1.05061 46.1701C1.05061 46.1701 0.463379 40.8116 0.463379 34.5723C0.463379 28.2595 1.05061 22.9744 1.05061 22.9744C1.41763 19.451 3.98678 14.8265 6.84955 12.6978C6.84955 12.6978 11.107 9.61482 16.3921 6.45844C21.7506 3.30205 26.5219 1.17333 26.5219 1.17333C28.0634 0.439287 30.1921 0.0722656 32.3208 0.0722656C34.3761 0.0722656 36.5049 0.439287 38.1198 1.17333C38.1198 1.17333 42.9644 3.30205 48.2495 6.45844C53.5347 9.54141 57.7921 12.6978 57.7921 12.6978Z" fill="#0066B3"/>
<path d="M38.5318 18.8103C38.0152 18.2964 37.28 18 36.4654 18H21.9506C20.3313 18 19 19.3241 19 20.9347V48.0683C19 49.6789 20.3313 51.003 21.9506 51.003H42.8137C44.4331 51.003 45.7644 49.6789 45.7644 48.0683V26.9523C45.7644 26.1421 45.4663 25.4109 44.8802 24.8279L38.5318 18.8103ZM42.7342 26.9523H37.4986C36.982 26.9523 36.5449 26.5077 36.5449 26.0037V21.0928L42.7342 26.9523ZM21.9506 47.9991V20.8655H33.6042V25.9247C33.6042 28.0491 35.3726 29.808 37.5085 29.808H42.7442V47.9893H21.9506V47.9991Z" fill="white"/>
<path d="M27.9174 34.8141C28.9764 34.8141 29.8348 33.9603 29.8348 32.9071C29.8348 31.8538 28.9764 31 27.9174 31C26.8585 31 26 31.8538 26 32.9071C26 33.9603 26.8585 34.8141 27.9174 34.8141Z" fill="white"/>
<path d="M35.9174 43.8141C36.9764 43.8141 37.8348 42.9603 37.8348 41.9071C37.8348 40.8538 36.9764 40 35.9174 40C34.8585 40 34 40.8538 34 41.9071C34 42.9603 34.8585 43.8141 35.9174 43.8141Z" fill="white"/>
<path d="M37.2356 31.7483C36.6495 31.1653 35.7653 31.1653 35.1692 31.7483L26.6948 40.0386C26.1086 40.6216 26.1086 41.501 26.6948 42.0938C26.9928 42.3903 27.3604 42.5385 27.728 42.5385C28.0956 42.5385 28.4632 42.3903 28.7612 42.0938L37.1661 33.7344C37.7522 33.2206 37.7522 32.3411 37.2356 31.7483Z" fill="white"/>
</g>
<defs>
<clipPath id="clip0_1_56">
<rect width="63.7149" height="69" fill="white" transform="translate(0.463379 0.0722656)"/>
</clipPath>
</defs>
</svg>
